{
    "accessors": {
        "accessor_index_0": {
            "bufferView": "bufferView_index",
            "byteOffset": 0,
            "byteStride": 0,
            "componentType": 5123,
            "count": 16563,
            "type": "SCALAR"
        },
        "accessor_position": {
            "bufferView": "bufferView_vertex",
            "byteOffset": 0,
            "byteStride": 32,
            "componentType": 5126,
            "count": 10539,
            "min": [
                -87.667366,
                0,
                -64.344414
            ],
            "max": [
                87.667824,
                100.455154,
                64.343666
            ],
            "type": "VEC3"
        },
        "accessor_normal": {
            "bufferView": "bufferView_vertex",
            "byteOffset": 12,
            "byteStride": 32,
            "componentType": 5126,
            "count": 10539,
            "type": "VEC3"
        },
        "accessor_uv": {
            "bufferView": "bufferView_vertex",
            "byteOffset": 24,
            "byteStride": 32,
            "componentType": 5126,
            "count": 10539,
            "type": "VEC2"
        }
    },
    "asset": {
        "generator": "OBJ2GLTF",
        "premultipliedAlpha": true,
        "profile": {
            "api": "WebGL",
            "version": "1.0"
        },
        "version": 1
    },
    "buffers": {
        "buffer_building": {
            "byteLength": 370374,
            "type": "arraybuffer",
            "uri": "data:application/octet-stream;base64,"
        }
    },
    "bufferViews": {
        "bufferView_vertex": {
            "buffer": "buffer_building",
            "byteLength": 337248,
            "byteOffset": 0,
            "target": 34962
        },
        "bufferView_index": {
            "buffer": "buffer_building",
            "byteLength": 33126,
            "byteOffset": 337248,
            "target": 34963
        }
    },
    "images": {
        "Untitled": {
            "name": "Untitled",
            "uri": "data:image/png;base64,"
        }
	},
	"materials": {
        "Material-effect": {
            "name": "Material",
            "technique": "technique0",
            "values": {
                "diffuse": "texture_Untitled",
                "shininess": 256,
				"specular": [
				  0.2,
				  0.2,
				  0.2,
				  1
				]
            }
        }
    },
    "meshes": {
        "mesh_building": {
            "name": "building",
            "primitives": [
                {
                    "attributes": {
                        "POSITION": "accessor_position",
                        "NORMAL": "accessor_normal",
                        "TEXCOORD_0": "accessor_uv"
                    },
                    "indices": "accessor_index_0",
                    "material": "Material-effect",
                    "mode": 4
                }
            ]
        }
    },
    "nodes": {
        "node_building": {
            "children": [],
            "matrix": [
                1,
                0,
                0,
                0,
                0,
                1,
                0,
                0,
                0,
                0,
                1,
                0,
                0,
                0,
                0,
                1
            ],
            "meshes": [
                "mesh_building"
            ],
            "name": "building"
        }
    },
    "samplers": {
        "sampler_0": {
            "magFilter": 9729,
            "minFilter": 9729,
            "wrapS": 10497,
            "wrapT": 10497
        }
    },
    "scene": "scene_building",
    "scenes": {
        "scene_building": {
            "nodes": [
                "node_building"
            ]
        }
    },
    "textures": {
        "texture_Untitled": {
            "format": 6408,
            "internalFormat": 6408,
            "sampler": "sampler_0",
            "source": "Untitled",
            "target": 3553,
            "type": 5121
        }
	},
    "programs": {
        "program_0": {
            "attributes": [
                "a_normal",
                "a_position",
                "a_texcoord0"
            ],
            "fragmentShader": "more_cubes0FS",
            "vertexShader": "more_cubes0VS"
        }
    },
    "shaders": {
        "more_cubes0FS": {
            "type": 35632,
            "uri": "data:text/plain;base64,"	
        },
        "more_cubes0VS": {
            "type": 35633,
            "uri": "data:text/plain;base64,"
        }
    },
    "techniques": {
        "technique0": {
		  "attributes": {
			"a_normal": "normal",
			"a_position": "position",
			"a_texcoord0": "texcoord0"
		  },
		  "parameters": {
			"diffuse": {
			  "type": 35678
			},
			"modelViewMatrix": {
			  "semantic": "MODELVIEW",
			  "type": 35676
			},
			"normal": {
			  "semantic": "NORMAL",
			  "type": 35665
			},
			"normalMatrix": {
			  "semantic": "MODELVIEWINVERSETRANSPOSE",
			  "type": 35675
			},
			"position": {
			  "semantic": "POSITION",
			  "type": 35665
			},
			"projectionMatrix": {
			  "semantic": "PROJECTION",
			  "type": 35676
			},
			"shininess": {
			  "type": 5126
			},
			"specular": {
			  "type": 35666
			},
			"texcoord0": {
			  "semantic": "TEXCOORD_0",
			  "type": 35664
			}
		  },
		  "program": "program_0",
		  "states": {
			"enable": [
			  2929,
			  2884
			],
			"disable": []
		  },
		  "uniforms": {
			"u_diffuse": "diffuse",
			"u_modelViewMatrix": "modelViewMatrix",
			"u_normalMatrix": "normalMatrix",
			"u_projectionMatrix": "projectionMatrix",
			"u_shininess": "shininess",
			"u_specular": "specular"
		  }
		}
    }
}