{
    "accessors": {
        "accessor_102": {
            "bufferView": "bufferView_137",
            "byteOffset": 216,
            "byteStride": 0,
            "componentType": 5123,
            "count": 36,
            "type": "SCALAR"
        },
        "accessor_104": {
            "bufferView": "bufferView_138",
            "byteOffset": 3456,
            "byteStride": 12,
            "componentType": 5126,
            "count": 36,
            "max": [
                1,
                1,
                1
            ],
            "min": [
                -1,
                -1,
                -1
            ],
            "type": "VEC3"
        },
        "accessor_106": {
            "bufferView": "bufferView_138",
            "byteOffset": 3888,
            "byteStride": 12,
            "componentType": 5126,
            "count": 36,
            "max": [
                1,
                1,
                1
            ],
            "min": [
                -1,
                -1,
                -1
            ],
            "type": "VEC3"
        },
        "accessor_108": {
            "bufferView": "bufferView_138",
            "byteOffset": 4320,
            "byteStride": 8,
            "componentType": 5126,
            "count": 36,
            "max": [
                1,
                1
            ],
            "min": [
                0,
                0
            ],
            "type": "VEC2"
        },
        "accessor_129": {
            "bufferView": "bufferView_137",
            "byteOffset": 288,
            "byteStride": 0,
            "componentType": 5123,
            "count": 36,
            "type": "SCALAR"
        },
        "accessor_131": {
            "bufferView": "bufferView_138",
            "byteOffset": 4608,
            "byteStride": 12,
            "componentType": 5126,
            "count": 36,
            "max": [
                1,
                1,
                1
            ],
            "min": [
                -1,
                -1,
                -1
            ],
            "type": "VEC3"
        },
        "accessor_133": {
            "bufferView": "bufferView_138",
            "byteOffset": 5040,
            "byteStride": 12,
            "componentType": 5126,
            "count": 36,
            "max": [
                1,
                1,
                1
            ],
            "min": [
                -1,
                -1,
                -1
            ],
            "type": "VEC3"
        },
        "accessor_135": {
            "bufferView": "bufferView_138",
            "byteOffset": 5472,
            "byteStride": 8,
            "componentType": 5126,
            "count": 36,
            "max": [
                1,
                1
            ],
            "min": [
                0,
                0
            ],
            "type": "VEC2"
        },
        "accessor_21": {
            "bufferView": "bufferView_137",
            "byteOffset": 0,
            "byteStride": 0,
            "componentType": 5123,
            "count": 36,
            "type": "SCALAR"
        },
        "accessor_23": {
            "bufferView": "bufferView_138",
            "byteOffset": 0,
            "byteStride": 12,
            "componentType": 5126,
            "count": 36,
            "max": [
                1,
                1,
                1
            ],
            "min": [
                -1,
                -1,
                -1
            ],
            "type": "VEC3"
        },
        "accessor_25": {
            "bufferView": "bufferView_138",
            "byteOffset": 432,
            "byteStride": 12,
            "componentType": 5126,
            "count": 36,
            "max": [
                1,
                1,
                1
            ],
            "min": [
                -1,
                -1,
                -1
            ],
            "type": "VEC3"
        },
        "accessor_27": {
            "bufferView": "bufferView_138",
            "byteOffset": 864,
            "byteStride": 8,
            "componentType": 5126,
            "count": 36,
            "max": [
                1,
                1
            ],
            "min": [
                0,
                0
            ],
            "type": "VEC2"
        },
        "accessor_48": {
            "bufferView": "bufferView_137",
            "byteOffset": 72,
            "byteStride": 0,
            "componentType": 5123,
            "count": 36,
            "type": "SCALAR"
        },
        "accessor_50": {
            "bufferView": "bufferView_138",
            "byteOffset": 1152,
            "byteStride": 12,
            "componentType": 5126,
            "count": 36,
            "max": [
                1,
                1,
                1
            ],
            "min": [
                -1,
                -1,
                -1
            ],
            "type": "VEC3"
        },
        "accessor_52": {
            "bufferView": "bufferView_138",
            "byteOffset": 1584,
            "byteStride": 12,
            "componentType": 5126,
            "count": 36,
            "max": [
                1,
                1,
                1
            ],
            "min": [
                -1,
                -1,
                -1
            ],
            "type": "VEC3"
        },
        "accessor_54": {
            "bufferView": "bufferView_138",
            "byteOffset": 2016,
            "byteStride": 8,
            "componentType": 5126,
            "count": 36,
            "max": [
                1,
                1
            ],
            "min": [
                0,
                0
            ],
            "type": "VEC2"
        },
        "accessor_75": {
            "bufferView": "bufferView_137",
            "byteOffset": 144,
            "byteStride": 0,
            "componentType": 5123,
            "count": 36,
            "type": "SCALAR"
        },
        "accessor_77": {
            "bufferView": "bufferView_138",
            "byteOffset": 2304,
            "byteStride": 12,
            "componentType": 5126,
            "count": 36,
            "max": [
                1,
                1,
                1
            ],
            "min": [
                -1,
                -1,
                -1
            ],
            "type": "VEC3"
        },
        "accessor_79": {
            "bufferView": "bufferView_138",
            "byteOffset": 2736,
            "byteStride": 12,
            "componentType": 5126,
            "count": 36,
            "max": [
                1,
                1,
                1
            ],
            "min": [
                -1,
                -1,
                -1
            ],
            "type": "VEC3"
        },
        "accessor_81": {
            "bufferView": "bufferView_138",
            "byteOffset": 3168,
            "byteStride": 8,
            "componentType": 5126,
            "count": 36,
            "max": [
                1,
                1
            ],
            "min": [
                0,
                0
            ],
            "type": "VEC2"
        }
    },
    "animations": {},
    "asset": {
        "generator": "collada2gltf@",
        "premultipliedAlpha": true,
        "profile": {
            "api": "WebGL",
            "version": "1.0.2"
        },
        "version": "1.0"
    },
    "bufferViews": {
        "bufferView_137": {
            "buffer": "more_cubes",
            "byteLength": 360,
            "byteOffset": 0,
            "target": 34963
        },
        "bufferView_138": {
            "buffer": "more_cubes",
            "byteLength": 5760,
            "byteOffset": 360,
            "target": 34962
        }
    },
    "buffers": {
        "more_cubes": {
            "byteLength": 6120,
            "type": "arraybuffer",
            "uri": "data:application/octet-stream;base64,"
        }
    },
    "cameras": {
        "Camera-camera": {
            "name": "Camera",
            "perspective": {
                "aspect_ratio": 1.7777799367904663,
                "yfov": 0.48237427870788735,
                "zfar": 100,
                "znear": 0.10000000149011612
            },
            "type": "perspective"
        }
    },
    "images": {
        "Untitled": {
            "name": "Untitled",
            "uri": "data:image/png;base64,"
        },
        "Untitled_001": {
            "name": "Untitled_001",
            "uri": "data:image/png;base64,"
        },
        "Untitled_002": {
            "name": "Untitled_002",
            "uri": "data:image/png;base64,"
        },
        "Untitled_004": {
            "name": "Untitled_004",
            "uri": "data:image/png;base64,"
        },
        "Untitled_005": {
            "name": "Untitled_005",
            "uri": "data:image/png;base64,"
        }
    },
    "materials": {
        "Material-effect": {
            "name": "Material",
            "technique": "technique0",
            "values": {
                "diffuse": "texture_Untitled_001",
                "shininess": 256,
				"specular": [
				  0.2,
				  0.2,
				  0.2,
				  1
				]
            }
        },
        "Material_001-effect": {
            "name": "Material_001",
            "technique": "technique0",
            "values": {
                "shininess": 256,
				"specular": [
				  0.2,
				  0.2,
				  0.2,
				  1
				],
                "diffuse": "texture_Untitled"
            }
        },
        "Material_002-effect": {
            "name": "Material_002",
            "technique": "technique0",
            "values": {
                "shininess": 256,
				"specular": [
				  0.2,
				  0.2,
				  0.2,
				  1
				],
                "diffuse": "texture_Untitled_002"
            }
        },
        "Material_003-effect": {
            "name": "Material_003",
            "technique": "technique0",
            "values": {
                "shininess": 256,
				"specular": [
				  0.2,
				  0.2,
				  0.2,
				  1
				],
                "diffuse": "texture_Untitled_004"
            }
        },
        "Material_004-effect": {
            "name": "Material_004",
            "technique": "technique0",
            "values": {
                "diffuse": "texture_Untitled_005",
                "shininess": 256,
				"specular": [
				  0.2,
				  0.2,
				  0.2,
				  1
				]
            }
        }
    },
    "meshes": {
        "Cube-mesh": {
            "name": "Cube",
            "primitives": [
                {
                    "attributes": {
                        "NORMAL": "accessor_25",
                        "POSITION": "accessor_23",
                        "TEXCOORD_0": "accessor_27"
                    },
                    "indices": "accessor_21",
                    "material": "Material-effect",
                    "mode": 4
                }
            ]
        },
        "Cube_001-mesh": {
            "name": "Cube.001",
            "primitives": [
                {
                    "attributes": {
                        "NORMAL": "accessor_52",
                        "POSITION": "accessor_50",
                        "TEXCOORD_0": "accessor_54"
                    },
                    "indices": "accessor_48",
                    "material": "Material_001-effect",
                    "mode": 4
                }
            ]
        },
        "Cube_002-mesh": {
            "name": "Cube.002",
            "primitives": [
                {
                    "attributes": {
                        "NORMAL": "accessor_79",
                        "POSITION": "accessor_77",
                        "TEXCOORD_0": "accessor_81"
                    },
                    "indices": "accessor_75",
                    "material": "Material_002-effect",
                    "mode": 4
                }
            ]
        },
        "Cube_003-mesh": {
            "name": "Cube.003",
            "primitives": [
                {
                    "attributes": {
                        "NORMAL": "accessor_106",
                        "POSITION": "accessor_104",
                        "TEXCOORD_0": "accessor_108"
                    },
                    "indices": "accessor_102",
                    "material": "Material_003-effect",
                    "mode": 4
                }
            ]
        },
        "Cube_004-mesh": {
            "name": "Cube.004",
            "primitives": [
                {
                    "attributes": {
                        "NORMAL": "accessor_133",
                        "POSITION": "accessor_131",
                        "TEXCOORD_0": "accessor_135"
                    },
                    "indices": "accessor_129",
                    "material": "Material_004-effect",
                    "mode": 4
                }
            ]
        }
    },
    "nodes": {
        "Camera": {
            "camera": "Camera-camera",
            "children": [],
            "matrix": [
                0.6858810186386108,
                0.7276340126991272,
                -0.010816800408065319,
                0,
                -0.3173699975013733,
                0.3124690055847168,
                0.895343005657196,
                0,
                0.6548619866371155,
                -0.6106659770011902,
                0.44524499773979187,
                0,
                7.4811296463012695,
                -6.5076398849487305,
                5.3436598777771,
                1
            ],
            "name": "Camera"
        },
        "Cube": {
            "children": [],
            "matrix": [
                0.9659259915351868,
                0.25881901383399963,
                0,
                0,
                -0.25881901383399963,
                0.9659259915351868,
                0,
                0,
                0,
                0,
                1,
                0,
                0,
                -1.563499927520752,
                0,
                1
            ],
            "meshes": [
                "Cube-mesh"
            ],
            "name": "Cube"
        },
        "Cube_001": {
            "children": [],
            "matrix": [
                5,
                0,
                0,
                0,
                0,
                5,
                0,
                0,
                0,
                0,
                0.10000000149011612,
                0,
                0,
                0,
                -1.3000000715255737,
                1
            ],
            "meshes": [
                "Cube_001-mesh"
            ],
            "name": "Cube_001"
        },
        "Cube_002": {
            "children": [],
            "matrix": [
                0.8660249710083008,
                0.5,
                0,
                0,
                -0.5,
                0.8660249710083008,
                0,
                0,
                0,
                0,
                3,
                0,
                -2.4067599773406982,
                2.640310049057007,
                1.8727799654006958,
                1
            ],
            "meshes": [
                "Cube_002-mesh"
            ],
            "name": "Cube_002"
        },
        "Cube_003": {
            "children": [],
            "matrix": [
                0.10000000149011612,
                0,
                0,
                0,
                0,
                1,
                0,
                0,
                0,
                0,
                2,
                0,
                1.7000000476837158,
                2,
                1,
                1
            ],
            "meshes": [
                "Cube_003-mesh"
            ],
            "name": "Cube_003"
        },
        "Cube_004": {
            "children": [],
            "matrix": [
                0.10000000149011612,
                0,
                0,
                0,
                0,
                1,
                0,
                0,
                0,
                0,
                2,
                0,
                2.4000000953674316,
                2,
                1,
                1
            ],
            "meshes": [
                "Cube_004-mesh"
            ],
            "name": "Cube_004"
        },
        "Hemi": {
            "children": [],
            "matrix": [
                1,
                0,
                0,
                0,
                0,
                1,
                0,
                0,
                0,
                0,
                1,
                0,
                0,
                0,
                4.493249893188477,
                1
            ],
            "name": "Hemi"
        },
        "Hemi_001": {
            "children": [],
            "matrix": [
                1,
                0,
                0,
                0,
                0,
                -1,
                -0.00000008742279788975793,
                0,
                0,
                0.00000008742279788975793,
                -1,
                0,
                -0.085704803467,
                -0.3390609920024872,
                -8.324689865112305,
                1
            ],
            "name": "Hemi_001"
        },
        "node_8": {
            "children": [
                "Camera",
                "Cube",
                "Hemi",
                "Cube_001",
                "Hemi_001",
                "Cube_002",
                "Cube_003",
                "Cube_004"
            ],
            "matrix": [
                1,
                0,
                0,
                0,
                0,
                0,
                -1,
                0,
                0,
                1,
                0,
                0,
                0,
                0,
                0,
                1
            ],
            "name": "Y_UP_Transform"
        }
    },
    "programs": {
        "program_0": {
            "attributes": [
                "a_normal",
                "a_position",
                "a_texcoord0"
            ],
            "fragmentShader": "more_cubes0FS",
            "vertexShader": "more_cubes0VS"
        }
    },
    "samplers": {
        "sampler_0": {
            "magFilter": 9729,
            "minFilter": 9729,
            "wrapS": 10497,
            "wrapT": 10497
        }
    },
    "scene": "defaultScene",
    "scenes": {
        "defaultScene": {
            "nodes": [
                "node_8"
            ]
        }
    },
    "shaders": {
        "more_cubes0FS": {
            "type": 35632,
            "uri": "data:text/plain;base64,"	
        },
        "more_cubes0VS": {
            "type": 35633,
            "uri": "data:text/plain;base64,"
        }
    },
    "skins": {},
    "techniques": {
        "technique0": {
		  "attributes": {
			"a_normal": "normal",
			"a_position": "position",
			"a_texcoord0": "texcoord0"
		  },
		  "parameters": {
			"diffuse": {
			  "type": 35678
			},
			"modelViewMatrix": {
			  "semantic": "MODELVIEW",
			  "type": 35676
			},
			"normal": {
			  "semantic": "NORMAL",
			  "type": 35665
			},
			"normalMatrix": {
			  "semantic": "MODELVIEWINVERSETRANSPOSE",
			  "type": 35675
			},
			"position": {
			  "semantic": "POSITION",
			  "type": 35665
			},
			"projectionMatrix": {
			  "semantic": "PROJECTION",
			  "type": 35676
			},
			"shininess": {
			  "type": 5126
			},
			"specular": {
			  "type": 35666
			},
			"texcoord0": {
			  "semantic": "TEXCOORD_0",
			  "type": 35664
			}
		  },
		  "program": "program_0",
		  "states": {
			"enable": [
			  2929,
			  2884
			],
			"disable": []
		  },
		  "uniforms": {
			"u_diffuse": "diffuse",
			"u_modelViewMatrix": "modelViewMatrix",
			"u_normalMatrix": "normalMatrix",
			"u_projectionMatrix": "projectionMatrix",
			"u_shininess": "shininess",
			"u_specular": "specular"
		  }
		}
    },
    "textures": {
        "texture_Untitled": {
            "format": 6408,
            "internalFormat": 6408,
            "sampler": "sampler_0",
            "source": "Untitled",
            "target": 3553,
            "type": 5121
        },
        "texture_Untitled_001": {
            "format": 6408,
            "internalFormat": 6408,
            "sampler": "sampler_0",
            "source": "Untitled_001",
            "target": 3553,
            "type": 5121
        },
        "texture_Untitled_002": {
            "format": 6408,
            "internalFormat": 6408,
            "sampler": "sampler_0",
            "source": "Untitled_002",
            "target": 3553,
            "type": 5121
        },
        "texture_Untitled_004": {
            "format": 6408,
            "internalFormat": 6408,
            "sampler": "sampler_0",
            "source": "Untitled_004",
            "target": 3553,
            "type": 5121
        },
        "texture_Untitled_005": {
            "format": 6408,
            "internalFormat": 6408,
            "sampler": "sampler_0",
            "source": "Untitled_005",
            "target": 3553,
            "type": 5121
        }
    }
}