{
    "accessors": {
        "accessor_21": {
            "bufferView": "bufferView_56",
            "byteOffset": 0,
            "byteStride": 0,
            "componentType": 5123,
            "count": 36,
            "type": "SCALAR"
        },
        "accessor_23": {
            "bufferView": "bufferView_57",
            "byteOffset": 0,
            "byteStride": 12,
            "componentType": 5126,
            "count": 36,
            "max": [
                1,
                1,
                1
            ],
            "min": [
                -1,
                -1,
                -1
            ],
            "type": "VEC3"
        },
        "accessor_25": {
            "bufferView": "bufferView_57",
            "byteOffset": 432,
            "byteStride": 12,
            "componentType": 5126,
            "count": 36,
            "max": [
                1,
                1,
                1
            ],
            "min": [
                -1,
                -1,
                -1
            ],
            "type": "VEC3"
        },
        "accessor_27": {
            "bufferView": "bufferView_57",
            "byteOffset": 864,
            "byteStride": 8,
            "componentType": 5126,
            "count": 36,
            "max": [
                1,
                1
            ],
            "min": [
                0,
                0
            ],
            "type": "VEC2"
        },
        "accessor_48": {
            "bufferView": "bufferView_56",
            "byteOffset": 72,
            "byteStride": 0,
            "componentType": 5123,
            "count": 36,
            "type": "SCALAR"
        },
        "accessor_50": {
            "bufferView": "bufferView_57",
            "byteOffset": 1152,
            "byteStride": 12,
            "componentType": 5126,
            "count": 36,
            "max": [
                1,
                1,
                1
            ],
            "min": [
                -1,
                -1,
                -1
            ],
            "type": "VEC3"
        },
        "accessor_52": {
            "bufferView": "bufferView_57",
            "byteOffset": 1584,
            "byteStride": 12,
            "componentType": 5126,
            "count": 36,
            "max": [
                1,
                1,
                1
            ],
            "min": [
                -1,
                -1,
                -1
            ],
            "type": "VEC3"
        },
        "accessor_54": {
            "bufferView": "bufferView_57",
            "byteOffset": 2016,
            "byteStride": 8,
            "componentType": 5126,
            "count": 36,
            "max": [
                1,
                1
            ],
            "min": [
                0,
                0
            ],
            "type": "VEC2"
        }
    },
    "animations": {},
    "asset": {
        "generator": "collada2gltf@",
        "premultipliedAlpha": true,
        "profile": {
            "api": "WebGL",
            "version": "1.0.2"
        },
        "version": "1.0"
    },
    "bufferViews": {
        "bufferView_56": {
            "buffer": "cube_over_ground",
            "byteLength": 144,
            "byteOffset": 0,
            "target": 34963
        },
        "bufferView_57": {
            "buffer": "cube_over_ground",
            "byteLength": 2304,
            "byteOffset": 144,
            "target": 34962
        }
    },
    "buffers": {
        "cube_over_ground": {
            "byteLength": 2448,
            "type": "arraybuffer",
            "uri": "data:application/octet-stream;base64,"
        }
    },
    "images": {
        "Untitled": {
            "name": "Untitled",
            "uri": "data:image/png;base64,"
        },
        "Untitled_001": {
            "name": "Untitled_001",
            "uri": "data:image/png;base64,"
        }
    },
    "materials": {
        "Material-effect": {
		  "name": "Material-effect",
		  "technique": "technique0",
		  "values": {
			"diffuse": "texture_Untitled",
			"shininess": 256,
			"specular": [
			  0.2,
			  0.2,
			  0.2,
			  1
			]
		  }
        },
        "Material_001-effect": {
            "name": "Material_001",
            "technique": "technique0",
			   "values": {
				"diffuse": "texture_Untitled_001",
				"shininess": 256,
				"specular": [
				  0.2,
				  0.2,
				  0.2,
				  1
				]
			  }
        }
    },
    "meshes": {
        "Cube-mesh": {
            "name": "Cube",
            "primitives": [
                {
                    "attributes": {
                        "NORMAL": "accessor_25",
                        "POSITION": "accessor_23",
                        "TEXCOORD_0": "accessor_27"
                    },
                    "indices": "accessor_21",
                    "material": "Material-effect",
                    "mode": 4
                }
            ]
        },
        "Cube_001-mesh": {
            "name": "Cube.001",
            "primitives": [
                {
                    "attributes": {
                        "NORMAL": "accessor_52",
                        "POSITION": "accessor_50",
                        "TEXCOORD_0": "accessor_54"
                    },
                    "indices": "accessor_48",
                    "material": "Material_001-effect",
                    "mode": 4
                }
            ]
        }
    },
    "nodes": {
        "Cube": {
            "children": [],
            "matrix": [
                1,
                0,
                0,
                0,
                0,
                1,
                0,
                0,
                0,
                0,
                1,
                0,
                0,
                0,
                0,
                1
            ],
            "meshes": [
                "Cube-mesh"
            ],
            "name": "Cube"
        },
        "Cube_001": {
            "children": [],
            "matrix": [
                2,
                0,
                0,
                0,
                0,
                2,
                0,
                0,
                0,
                0,
                0.10000000149011612,
                0,
                0,
                0,
                -1.3000000715255737,
                1
            ],
            "meshes": [
                "Cube_001-mesh"
            ],
            "name": "Cube_001"
        },
        "node_2": {
            "children": [
                "Cube",
                "Cube_001"
            ],
            "matrix": [
                1,
                0,
                0,
                0,
                0,
                0,
                -1,
                0,
                0,
                1,
                0,
                0,
                0,
                0,
                0,
                1
            ],
            "name": "Y_UP_Transform"
        }
    },
    "programs": {
        "program_0": {
            "attributes": [
                "a_normal",
                "a_position",
                "a_texcoord0"
            ],
            "fragmentShader": "cube_over_ground0FS",
            "vertexShader": "cube_over_ground0VS"
        }
    },
    "samplers": {
        "sampler_0": {
            "magFilter": 9729,
            "minFilter": 9987,
            "wrapS": 10497,
            "wrapT": 10497
        }
    },
    "scene": "defaultScene",
    "scenes": {
        "defaultScene": {
            "nodes": [
                "node_2"
            ],
            "node": []
        }
    },
    "shaders": {
        "cube_over_ground0FS": {
            "type": 35632,
            "type": 35632,
			"uri": "data:text/plain;base64,"	
        },
        "cube_over_ground0VS": {
            "type": 35633,
            "uri": "data:text/plain;base64,"
        }
    },
    "skins": {},
    "techniques": {
        "technique0": {
		  "attributes": {
			"a_normal": "normal",
			"a_position": "position",
			"a_texcoord0": "texcoord0"
		  },
		  "parameters": {
			"diffuse": {
			  "type": 35678
			},
			"modelViewMatrix": {
			  "semantic": "MODELVIEW",
			  "type": 35676
			},
			"normal": {
			  "semantic": "NORMAL",
			  "type": 35665
			},
			"normalMatrix": {
			  "semantic": "MODELVIEWINVERSETRANSPOSE",
			  "type": 35675
			},
			"position": {
			  "semantic": "POSITION",
			  "type": 35665
			},
			"projectionMatrix": {
			  "semantic": "PROJECTION",
			  "type": 35676
			},
			"shininess": {
			  "type": 5126
			},
			"specular": {
			  "type": 35666
			},
			"texcoord0": {
			  "semantic": "TEXCOORD_0",
			  "type": 35664
			}
		  },
		  "program": "program_0",
		  "states": {
			"enable": [
			  2929,
			  2884
			],
			"disable": []
		  },
		  "uniforms": {
			"u_diffuse": "diffuse",
			"u_modelViewMatrix": "modelViewMatrix",
			"u_normalMatrix": "normalMatrix",
			"u_projectionMatrix": "projectionMatrix",
			"u_shininess": "shininess",
			"u_specular": "specular"
		  }
		}
    },
    "textures": {
        "texture_Untitled": {
            "format": 6408,
            "internalFormat": 6408,
            "sampler": "sampler_0",
            "source": "Untitled",
            "target": 3553,
            "type": 5121
        },
        "texture_Untitled_001": {
            "format": 6408,
            "internalFormat": 6408,
            "sampler": "sampler_0",
            "source": "Untitled_001",
            "target": 3553,
            "type": 5121
        }
    },
    "extensionsUsed": [],
    "cameras": {},
    "extensions": {
        "KHR_materials_common": {
            "lights": {}
        }
    }
}